<?xml version="1.0" encoding="UTF-8" standalone="no"?>
<!DOCTYPE svg PUBLIC "-//W3C//DTD SVG 1.1//EN"
 "http://www.w3.org/Graphics/SVG/1.1/DTD/svg11.dtd">
<!-- Generated by graphviz version 2.40.1 (20161225.0304)
 -->
<!-- Title: UmlClassDiagram Pages: 1 -->
<svg width="370pt" height="304pt"
 viewBox="0.00 0.00 369.60 304.40" xmlns="http://www.w3.org/2000/svg" xmlns:xlink="http://www.w3.org/1999/xlink">
<g id="graph0" class="graph" transform="scale(1 1) rotate(0) translate(4 300.4)">
<title>UmlClassDiagram</title>
<polygon fill="#ffffff" stroke="transparent" points="-4,4 -4,-300.4 365.6026,-300.4 365.6026,4 -4,4"/>
<!-- 0 -->
<g id="node1" class="node">
<title>0</title>
<polygon fill="#f2f2f2" stroke="#000000" points="0,-171.1 0,-295.9 361.6026,-295.9 361.6026,-171.1 0,-171.1"/>
<text text-anchor="middle" x="180.8013" y="-279.3" font-family="Times,serif" font-size="14.00" fill="#000000">&lt;&lt;Library&gt;&gt;</text>
<text text-anchor="middle" x="180.8013" y="-262.5" font-family="Times,serif" font-size="14.00" fill="#000000">Eidas</text>
<polyline fill="none" stroke="#000000" points="0,-254.3 361.6026,-254.3 "/>
<text text-anchor="middle" x="180.8013" y="-237.7" font-family="Times,serif" font-size="14.00" fill="#000000"> </text>
<polyline fill="none" stroke="#000000" points="0,-229.5 361.6026,-229.5 "/>
<text text-anchor="start" x="8" y="-212.9" font-family="Times,serif" font-size="14.00" fill="#000000">Public:</text>
<text text-anchor="start" x="8" y="-196.1" font-family="Times,serif" font-size="14.00" fill="#000000"> &#160;&#160;&#160;atLeastLow(_eidasLevel: EidasLevel): bool</text>
<text text-anchor="start" x="8" y="-179.3" font-family="Times,serif" font-size="14.00" fill="#000000"> &#160;&#160;&#160;atLeast(_eidasLevel: EidasLevel, _level: EidasLevel): bool</text>
</g>
<!-- 0enum0 -->
<g id="node2" class="node">
<title>0enum0</title>
<polygon fill="#f2f2f2" stroke="#000000" points="137.0299,-.5 137.0299,-134.1 224.5727,-134.1 224.5727,-.5 137.0299,-.5"/>
<text text-anchor="middle" x="180.8013" y="-117.5" font-family="Times,serif" font-size="14.00" fill="#000000">&lt;&lt;enum&gt;&gt;</text>
<text text-anchor="middle" x="180.8013" y="-100.7" font-family="Times,serif" font-size="14.00" fill="#000000">EidasLevel</text>
<polyline fill="none" stroke="#000000" points="137.0299,-92.5 224.5727,-92.5 "/>
<text text-anchor="start" x="145.0299" y="-75.9" font-family="Times,serif" font-size="14.00" fill="#000000">Null</text>
<text text-anchor="start" x="145.0299" y="-59.1" font-family="Times,serif" font-size="14.00" fill="#000000">Reputational</text>
<text text-anchor="start" x="145.0299" y="-42.3" font-family="Times,serif" font-size="14.00" fill="#000000">Low</text>
<text text-anchor="start" x="145.0299" y="-25.5" font-family="Times,serif" font-size="14.00" fill="#000000">Substantial</text>
<text text-anchor="start" x="145.0299" y="-8.7" font-family="Times,serif" font-size="14.00" fill="#000000">High</text>
</g>
<!-- 0enum0&#45;&gt;0 -->
<g id="edge1" class="edge">
<title>0enum0&#45;&gt;0</title>
<path fill="none" stroke="#000000" d="M180.8013,-134.4208C180.8013,-142.4375 180.8013,-150.6604 180.8013,-158.7757"/>
<polygon fill="#000000" stroke="#000000" points="180.8014,-158.9685 184.8013,-164.9685 180.8013,-170.9685 176.8013,-164.9684 180.8014,-158.9685"/>
</g>
</g>
</svg>
